<mxfile host="app.diagrams.net" modified="2023-02-03T13:18:01.198Z" agent="5.0 (Windows NT 10.0; Win64; x64) AppleWebKit/537.36 (KHTML, like Gecko) Chrome/109.0.0.0 Safari/537.36" etag="PHYiIYYtE0pp4V_VprD3" version="20.8.16" type="github">
  <diagram name="Страница 1" id="90SoNImV1iq6t1UVwjdc">
    <mxGraphModel dx="1073" dy="786" grid="1" gridSize="10" guides="1" tooltips="1" connect="1" arrows="1" fold="1" page="1" pageScale="1" pageWidth="827" pageHeight="1169" math="0" shadow="0">
      <root>
        <mxCell id="0" />
        <mxCell id="1" parent="0" />
        <mxCell id="rg27a8TC0TxukL3ixHbt-3" value="" style="edgeStyle=orthogonalEdgeStyle;rounded=0;orthogonalLoop=1;jettySize=auto;html=1;" edge="1" parent="1" source="rg27a8TC0TxukL3ixHbt-1" target="rg27a8TC0TxukL3ixHbt-2">
          <mxGeometry relative="1" as="geometry" />
        </mxCell>
        <mxCell id="rg27a8TC0TxukL3ixHbt-1" value="" style="whiteSpace=wrap;html=1;aspect=fixed;" vertex="1" parent="1">
          <mxGeometry x="330" y="320" width="120" height="120" as="geometry" />
        </mxCell>
        <mxCell id="rg27a8TC0TxukL3ixHbt-2" value="" style="whiteSpace=wrap;html=1;aspect=fixed;" vertex="1" parent="1">
          <mxGeometry x="130" y="320" width="120" height="120" as="geometry" />
        </mxCell>
      </root>
    </mxGraphModel>
  </diagram>
</mxfile>
